<svg width="700" height="532" viewBox="0 0 700 532" fill="none" xmlns="http://www.w3.org/2000/svg">
    <path d="M207.25 0.756592C239.107 0.756673 271.007 12.3341 291.376 35.5437C311.819 58.8379 307.109 90.0905 299.736 118.184C296.036 132.285 291.676 145.553 289.382 156.793C288.237 162.402 287.617 167.462 287.85 171.82C288.082 176.176 289.165 179.794 291.39 182.56C295.91 188.18 304.59 192.365 315.467 195.115C326.322 197.86 339.279 199.155 352.247 199.061C365.215 198.968 378.173 197.487 389.032 194.694C399.914 191.896 408.6 187.802 413.121 182.548C415.339 179.971 416.586 176.196 417.084 171.439C417.581 166.688 417.326 161.013 416.59 154.689C415.116 142.036 411.733 126.897 408.697 111.533C405.666 96.1905 402.985 80.6314 402.945 67.2107C402.906 53.8085 405.501 42.4005 413.166 35.5017C428.278 21.9009 458.89 10.6748 490.762 8.44312C522.636 6.21138 555.95 12.9641 576.371 35.5378C586.626 46.8741 589.243 60.3065 588.052 74.3933C586.862 88.4612 581.872 103.229 576.874 117.286C571.864 131.377 566.857 144.729 565.548 156.07C564.894 161.731 565.169 166.851 566.801 171.285C568.429 175.707 571.42 179.482 576.262 182.447C586.055 188.443 593.745 189.945 600.453 189.243C607.187 188.538 612.984 185.612 619.024 182.615C625.043 179.629 631.288 176.583 638.812 175.794C646.353 175.003 655.13 176.48 666.236 182.432C677.424 188.428 685.762 200.475 691.301 215.448C696.843 230.431 699.608 248.41 699.608 266.374C699.608 284.338 696.843 302.317 691.301 317.3C685.762 332.273 677.424 344.318 666.236 350.314C655.155 356.253 646.018 358.99 638.024 359.787C630.029 360.584 623.207 359.438 616.768 357.653C603.85 354.072 592.641 348.014 576.377 349.563C574.395 349.752 572.85 350.299 571.664 351.145C570.481 351.989 569.624 353.152 569.049 354.622C567.889 357.587 567.886 361.777 568.698 366.971C570.322 377.353 575.128 391.37 579.722 406.787C584.305 422.169 588.661 438.902 589.324 454.607C589.987 470.316 586.957 485.063 576.7 496.401C556.298 518.954 523.965 528.118 492.546 527.084C461.134 526.049 430.497 514.817 413.463 496.405C404.887 487.136 401.8 474.576 401.659 460.699C401.518 446.822 404.321 431.557 407.593 416.807C410.87 402.032 414.61 387.799 416.383 375.889C417.268 369.94 417.656 364.603 417.256 360.099C416.855 355.593 415.669 351.969 413.451 349.391C408.93 344.137 400.243 340.043 389.361 337.245C378.502 334.452 365.544 332.971 352.576 332.878C339.608 332.784 326.651 334.079 315.796 336.824C304.919 339.574 296.24 343.759 291.72 349.379C289.495 352.145 288.411 355.763 288.179 360.119C287.946 364.477 288.566 369.538 289.711 375.147C292.006 386.387 296.366 399.655 300.066 413.756C307.439 441.849 312.149 473.101 291.706 496.395C271.337 519.605 239.437 531.182 207.58 531.182C175.723 531.182 143.823 519.605 123.454 496.395C113.211 484.723 110.172 469.659 110.816 453.706C111.461 437.755 115.788 420.852 120.343 405.438C124.908 389.989 129.683 376.082 131.284 366.01C132.086 360.967 132.07 356.995 130.912 354.304C130.34 352.976 129.491 351.965 128.319 351.28C127.141 350.592 125.599 350.212 123.612 350.212C115.482 350.212 108.599 351.678 102.146 353.519C95.722 355.352 89.6267 357.589 83.2383 359.07C76.8145 360.559 70.0157 361.307 62.042 360.187C54.0719 359.068 44.9512 356.088 33.876 350.152C22.6882 344.156 14.3515 332.11 8.8125 317.137C3.26996 302.154 0.503981 284.176 0.503906 266.212C0.503906 248.248 3.26999 230.269 8.8125 215.286C14.3515 200.312 22.688 188.266 33.876 182.27C44.9824 176.318 53.721 174.836 61.2051 175.624C68.6728 176.41 74.8423 179.455 80.7842 182.447C86.7479 185.45 92.4687 188.39 99.1445 189.12C105.795 189.847 113.447 188.384 123.241 182.446C128.084 179.51 131.074 175.777 132.702 171.405C134.334 167.022 134.611 161.961 133.959 156.358C132.653 145.133 127.649 131.9 122.641 117.877C117.644 103.888 112.655 89.1402 111.464 74.991C110.271 60.8229 112.883 47.2129 123.124 35.5437C143.493 12.3341 175.392 0.756641 207.25 0.756592Z" fill="url(#paint0_linear_8_291)"/>
    <defs>
        <linearGradient id="paint0_linear_8_291" x1="-25.5" y1="476.5" x2="600.5" y2="56" gradientUnits="userSpaceOnUse">
            <stop stop-color="#955AE0"/>
            <stop offset="1" stop-color="#DB3B4B"/>
        </linearGradient>
    </defs>
</svg>
